PathFileType	4	(X/Y/Z)	./resultDataOpenSim/trcMotMarkerGrf/sub09/qtm-02-02.trc
DataRate	CameraRate	NumFrames	NumMarkers	Units	OrigDataRate	OrigDataStartFrame	OrigNumFrames
250.000000	250.000000	6	24	m	250.000000	303	484
Frame#	Time	L.Toe.Tip			R.Toe.Tip			L.Ankle.Lat			R.Ankle.Lat			L.Ankle.Med			R.Ankle.Med			L.Heel			R.Heel			L.Knee.Lat			R.Knee.Lat			L.Knee.Med			R.Knee.Med			L.Thigh.Upper			R.Thigh.Upper			L.ASIS			R.ASIS			V.Sacral			L.Acromium			R.Acromium			C7			L.Elbow			R.Elbow			L.Wrist.Lat			R.Wrist.Lat
		X1	Y1	Z1	X2	Y2	Z2	X3	Y3	Z3	X4	Y4	Z4	X5	Y5	Z5	X6	Y6	Z6	X7	Y7	Z7	X8	Y8	Z8	X9	Y9	Z9	X10	Y10	Z10	X11	Y11	Z11	X12	Y12	Z12	X13	Y13	Z13	X14	Y14	Z14	X15	Y15	Z15	X16	Y16	Z16	X17	Y17	Z17	X18	Y18	Z18	X19	Y19	Z19	X20	Y20	Z20	X21	Y21	Z21	X22	Y22	Z22	X23	Y23	Z23	X24	Y24	Z24

303	1.208	0.15020958	0.015890633	-0.029433562	0.97712192	0.047259177	0.11401772	0.057888777	0.13024721	-0.091387243	0.82790688	0.052110899	0.14476133	0.084741809	0.13494032	0.0032158738	0.83493671	0.093619979	0.053905308	-0.019003393	0.14510654	-0.049819965	0.76271723	0.029489581	0.092781126	0.34620854	0.44186622	-0.11863714	0.74770131	0.50786762	0.1881162	0.34714348	0.43385417	0.0063242369	0.73882287	0.48439369	0.064757127	0.48133481	0.83098205	-0.13910047	0.52664417	0.8410454	0.23090252	0.58975739	0.9068589	-0.090932825	0.59822214	0.9273904	0.1501169	0.42816888	0.97039967	0.035134233	0.58929603	1.3734284	-0.11625026	0.53617578	1.3731579	0.21107421	0.49900759	1.4238942	0.040758972	0.47668243	1.0161692	-0.19882284	0.38261896	1.0412923	0.27620934	0.69615848	0.85856933	-0.16908982	0.49509873	0.79970109	0.32919321
304	1.212	0.15075235	0.016224044	-0.029874762	0.9784373	0.044816511	0.11233826	0.061933485	0.13358782	-0.092632672	0.82901869	0.051914892	0.14427296	0.089716891	0.13747189	0.0016736632	0.83581516	0.093192792	0.053352794	-0.014010778	0.15022703	-0.050395461	0.76318783	0.029880648	0.092911785	0.35547977	0.44099957	-0.11920912	0.75613063	0.50917047	0.18838888	0.35581841	0.43235767	0.0058818583	0.74538954	0.4856413	0.064987095	0.48889887	0.82997679	-0.13830566	0.53363146	0.84216032	0.23174099	0.59686945	0.90623306	-0.089967735	0.60505267	0.92822163	0.15085554	0.43374497	0.97051229	0.034681289	0.59570302	1.3734848	-0.11570866	0.54284026	1.3730204	0.21169053	0.50539663	1.4237013	0.041434775	0.4826532	1.0163175	-0.19805904	0.38965395	1.0409557	0.2767326	0.70101392	0.85737882	-0.1688502	0.50250011	0.79946716	0.32966571
305	1.216	0.15151299	0.016738794	-0.03029704	0.97946695	0.043410001	0.11080413	0.066310367	0.13710585	-0.093784524	0.82990409	0.051940951	0.14361369	0.095062103	0.14009213	0.00017700405	0.83650317	0.092733822	0.052563052	-0.0086375562	0.15551045	-0.050839747	0.76367501	0.030151379	0.092732852	0.36503043	0.44004562	-0.1198716	0.76426554	0.5100437	0.1886081	0.36501618	0.43076791	0.0052697879	0.75186437	0.48684153	0.065059269	0.4964999	0.82900276	-0.13751463	0.54048013	0.84330163	0.23267426	0.60389078	0.90565999	-0.088961609	0.61181398	0.92911451	0.15163371	0.43977813	0.97038197	0.035063424	0.60211785	1.3736247	-0.11516905	0.54950487	1.3729528	0.21227502	0.51175478	1.4235438	0.04209805	0.4886053	1.0166064	-0.19730164	0.39673347	1.0406968	0.27725086	0.7057958	0.85621586	-0.16862447	0.50995476	0.79931078	0.33012389
306	1.22	0.15255182	0.017468374	-0.030686237	0.98019958	0.042606405	0.109717	0.071040532	0.14076453	-0.09482686	0.83056548	0.052153055	0.1429998	0.10071967	0.14282005	-0.0012337672	0.83708004	0.09227413	0.051766973	-0.0028889531	0.16095513	-0.051202516	0.76413351	0.030343689	0.092471786	0.37484566	0.43900686	-0.1206301	0.77207517	0.51061916	0.18873887	0.37463875	0.42906584	0.0045359855	0.75827192	0.48798836	0.065039254	0.50415075	0.8280424	-0.13676142	0.54720789	0.84444532	0.23368882	0.6108503	0.90514691	-0.087894521	0.61848896	0.93005891	0.15246245	0.44630454	0.97008117	0.035920693	0.60853927	1.373829	-0.11463459	0.5561628	1.3729442	0.21283415	0.51810261	1.4234509	0.042727127	0.49454218	1.0170211	-0.19655594	0.40386636	1.0404971	0.27776064	0.7105066	0.85507133	-0.16840794	0.51748108	0.79922084	0.33058377
307	1.224	0.15385214	0.018417322	-0.031054418	0.98071915	0.04201859	0.10906312	0.076108877	0.14455201	-0.095764471	0.83102955	0.052450307	0.14256199	0.10661161	0.14568514	-0.0025167098	0.83753466	0.091850456	0.051133952	0.0032245397	0.16657219	-0.051526408	0.76448729	0.030488185	0.092362315	0.38493547	0.43792529	-0.1215273	0.77956686	0.51103092	0.18876758	0.38451801	0.42720583	0.0037577999	0.76464573	0.48910181	0.064969954	0.51182872	0.82709811	-0.13604169	0.55381182	0.84556998	0.23476109	0.61774919	0.90470618	-0.086744648	0.625072	0.93105008	0.15334661	0.45314111	0.96977257	0.036802754	0.61495816	1.3740885	-0.11411119	0.56280879	1.3729875	0.21337127	0.52445725	1.4234448	0.043317175	0.50046756	1.0175486	-0.19582287	0.41102945	1.0403462	0.27825881	0.71514557	0.85394122	-0.16820247	0.52507596	0.79919034	0.33105249
308	1.228	0.15536993	0.019578869	-0.031429632	0.98114113	0.041485723	0.10862357	0.08149397	0.14848749	-0.096621755	0.83136635	0.052714189	0.14230796	0.11266369	0.14870987	-0.0036291053	0.83783019	0.091498138	0.050713263	0.0096930017	0.17237483	-0.051837138	0.76471517	0.030598674	0.092470976	0.39525706	0.43685633	-0.12253833	0.78674433	0.51134902	0.18872833	0.39482069	0.42516098	0.0028619353	0.77102484	0.49020987	0.064859078	0.51948308	0.82619214	-0.13529347	0.56029088	0.84666213	0.23586603	0.62457176	0.90435323	-0.085501528	0.63156914	0.93208058	0.15428632	0.46023168	0.96957555	0.037437216	0.62136443	1.3744048	-0.113607	0.5694396	1.3730829	0.21388484	0.53081722	1.4235292	0.043874336	0.50638197	1.0181763	-0.19510473	0.41818964	1.0402383	0.27875252	0.71970907	0.85283182	-0.1680148	0.53271843	0.79921838	0.33152473
